<?xml version="1.0" encoding="UTF-8"?>
<svg version="1.1" xmlns="http://www.w3.org/2000/svg" width="452" height="400">
<path d="M0 0 C6.68201088 4.38389873 12.24661494 10.13197799 16.1875 17.0625 C16.80625 17.97 17.425 18.8775 18.0625 19.8125 C19.7083332 22.32965666 21.1460181 24.79521646 22.5625 27.4375 C24.175784 30.40417726 25.86951078 33.00952136 28 35.625 C31.51035471 40.11498858 33.85608361 45.13043537 36.29614258 50.25219727 C38.30241845 54.43639537 40.5304987 58.23955719 43.1875 62.0625 C44.1875 63.72916667 45.1875 65.39583333 46.1875 67.0625 C46.80625 67.97 47.425 68.8775 48.0625 69.8125 C50.21099197 73.0984289 52.08522724 76.45925418 53.96484375 79.90234375 C54.97790105 81.6921862 56.10115292 83.41913615 57.25 85.125 C59.17871711 88.049184 60.67072357 90.99689899 62.1953125 94.140625 C63.23890272 96.25758035 63.23890272 96.25758035 65.0625 98.8125 C67.03839167 101.83445197 68.60048951 104.82467961 70.1875 108.0625 C72.27840251 112.32330637 74.45190719 116.19493775 77.1875 120.0625 C78.1875 121.72916667 79.1875 123.39583333 80.1875 125.0625 C80.80625 125.97 81.425 126.8775 82.0625 127.8125 C84.21421021 131.10335091 86.09101742 134.46925077 87.97265625 137.91796875 C89.23501843 140.21947897 89.23501843 140.21947897 91.125 142.875 C93.04218704 145.83792542 94.53275701 148.76278662 96.0625 151.9375 C97.85442847 155.60239893 99.64107987 158.87614182 102.1875 162.0625 C105.4472721 166.14148184 107.5560706 170.61554515 109.8125 175.3046875 C111.36286298 178.41422234 113.23192465 181.19432282 115.1875 184.0625 C116.18913781 186.00268032 117.13917086 187.95893756 118.0625 189.9375 C119.21241794 192.21107607 119.21241794 192.21107607 121.03515625 194.73046875 C123.65399265 198.78467465 125.61955857 202.99350879 127.625 207.375 C131.07302058 214.87880745 134.62801564 222.26205352 139.25 229.125 C141.13653955 231.98523738 142.6171387 234.84029722 144.0625 237.9375 C145.21097136 240.20814903 145.21097136 240.20814903 147.0234375 242.71484375 C149.69946444 246.85447388 151.74067213 251.16021094 153.8125 255.625 C154.20695312 256.46224609 154.60140625 257.29949219 155.0078125 258.16210938 C160.78816106 270.49417059 160.78816106 270.49417059 160.1875 278.0625 C158.67543526 281.5591497 157.17612021 282.06760022 153.66088867 283.64306641 C148.94678497 285.34669094 144.58621623 285.49689526 139.61328125 285.4609375 C138.72642136 285.46380768 137.83956146 285.46667786 136.92582703 285.46963501 C135.06439571 285.47166415 133.2029425 285.46621535 131.34155273 285.45361328 C128.49740045 285.43748526 125.65465666 285.45353041 122.81054688 285.47265625 C120.99478855 285.47067473 119.17903109 285.46683296 117.36328125 285.4609375 C116.51735916 285.46701019 115.67143707 285.47308289 114.79988098 285.4793396 C107.74509869 285.39538656 104.02991297 283.19387307 99.0625 278.1875 C98.39992188 277.53007812 97.73734375 276.87265625 97.0546875 276.1953125 C92.73162663 271.25725552 90.04941493 265.08720235 87.00390625 259.31640625 C85.2359526 256.04477553 85.2359526 256.04477553 83.14453125 253.01953125 C81.24452168 250.14865851 79.77382872 247.30004761 78.3125 244.1875 C76.10547199 239.67312452 73.68379538 235.84756347 70.5625 231.9296875 C68.71490319 229.42073502 67.44635576 226.75140162 66.12109375 223.94140625 C64.73028362 221.14232812 62.95814884 218.6327967 61.1875 216.0625 C58.75270974 212.14566349 56.56012986 208.1083404 54.37109375 204.05078125 C53.21906653 201.9301301 53.21906653 201.9301301 51.1875 200.0625 C50.754375 198.70125 50.754375 198.70125 50.3125 197.3125 C49.07469974 193.73663258 47.35599853 191.15096761 45.1875 188.0625 C43.26650386 184.97220186 41.49928991 181.81425416 39.75 178.625 C38.29467107 175.98449302 36.81250237 173.50568533 35.125 171 C33.19948118 168.08066502 31.70924267 165.13859426 30.1875 162 C29.11346291 159.83086495 29.11346291 159.83086495 27.1875 157.0625 C25.22634366 154.1207655 23.72520992 151.17152671 22.1875 148 C21.11346291 145.83086495 21.11346291 145.83086495 19.1875 143.0625 C17.64507138 140.74885707 16.4843427 138.67645515 15.3125 136.1875 C13.4711952 132.38116636 11.15371728 129.19032508 8.5546875 125.8671875 C7.1875 124.0625 7.1875 124.0625 5.75 121.5 C3.28100462 117.6483672 1.15049977 114.50404402 -2.8125 112.0625 C-7.80350093 111.20073112 -12.71180219 111.39900902 -17.75 111.625 C-19.11515428 111.66016184 -20.48039583 111.69209233 -21.84570312 111.72070312 C-25.17020911 111.80293472 -28.49022231 111.91783196 -31.8125 112.0625 C-31.4098291 112.65780518 -31.0071582 113.25311035 -30.59228516 113.86645508 C-30.05909668 114.65947021 -29.5259082 115.45248535 -28.9765625 116.26953125 C-28.18693115 117.44092651 -28.18693115 117.44092651 -27.38134766 118.63598633 C-25.41626404 121.67535236 -23.69385932 124.81680574 -21.96875 127.99609375 C-20.40422604 130.79215177 -18.61660026 133.41648629 -16.8125 136.0625 C-13.57640595 141.23455647 -10.84142336 146.67256259 -8.04101562 152.08789062 C-7.65494141 152.82587891 -7.26886719 153.56386719 -6.87109375 154.32421875 C-6.52361084 154.99412842 -6.17612793 155.66403809 -5.81811523 156.35424805 C-4.80696649 158.23512803 -4.80696649 158.23512803 -2.8125 160.0625 C-1.52036108 163.24450196 -0.38158204 166.46907029 0.7734375 169.703125 C2.24000982 173.18724708 4.06208275 175.94287285 6.1875 179.0625 C7.7742903 181.88245702 9.26202024 184.75191935 10.75 187.625 C13.60871689 193.15474715 13.60871689 193.15474715 16.6875 198.5625 C19.25525729 202.84209548 21.48858527 207.30574222 23.78320312 211.73632812 C25.47811719 214.97364276 27.18471572 218.05834762 29.22265625 221.09765625 C31.97247955 225.246992 34.03254084 229.66235049 36.1875 234.140625 C37.70385735 237.24441895 39.22020199 240.11087304 41.16015625 242.98046875 C43.75919986 246.93161597 45.65997586 251.08181254 47.625 255.375 C49.89094621 260.30630004 52.18958357 265.12924482 54.91796875 269.82421875 C56.77445373 273.10843679 57.85659257 275.73504424 58.0625 279.5625 C58.12179687 280.3978125 58.18109375 281.233125 58.2421875 282.09375 C58.1875 284.0625 58.1875 284.0625 57.1875 285.0625 C54.48718801 285.17366847 51.811985 285.21920717 49.11070251 285.22312927 C47.82544335 285.230761 47.82544335 285.230761 46.51421934 285.23854691 C43.62007697 285.25434305 40.72595969 285.26281533 37.83178711 285.27124023 C35.76582681 285.28077312 33.69986813 285.29066402 31.63391113 285.30088806 C24.82757478 285.33234526 18.02122593 285.35255119 11.21484375 285.37109375 C10.057886 285.37439107 8.90092825 285.37768839 7.70891118 285.38108563 C-3.1984098 285.41187508 -14.10573345 285.43859018 -25.01308537 285.45550442 C-38.97639299 285.47740876 -52.9393159 285.5193613 -66.90246969 285.58894199 C-76.7131473 285.63617282 -86.5237211 285.66043701 -96.33450884 285.6677013 C-102.19681977 285.67265997 -108.05869771 285.68776121 -113.92088509 285.7274456 C-119.43919259 285.7643074 -124.95681977 285.77272278 -130.47522736 285.75943947 C-132.49888009 285.75949343 -134.52256291 285.76979442 -136.54610252 285.7911911 C-139.31382629 285.81888767 -142.07907176 285.80935794 -144.84681702 285.79075623 C-145.64382226 285.80755115 -146.44082749 285.82434608 -147.26198441 285.84164995 C-153.5475361 285.7364061 -157.28649249 283.3310802 -161.8125 279.0625 C-163.65234375 276.6484375 -163.65234375 276.6484375 -164.75 274.4375 C-165.13027344 273.70273437 -165.51054687 272.96796875 -165.90234375 272.2109375 C-167.85257623 267.60738443 -168.02560042 263.27549351 -168.0625 258.3125 C-168.0934375 257.29542969 -168.0934375 257.29542969 -168.125 256.2578125 C-168.19025079 247.67733318 -164.36029146 240.83590418 -160.375 233.4375 C-159.80168945 232.35082031 -159.80168945 232.35082031 -159.21679688 231.2421875 C-157.53562062 228.09105239 -155.83429621 225.09430032 -153.8125 222.14453125 C-150.66907278 217.30046079 -148.45473532 212.03989866 -146.08007812 206.78710938 C-145.51256836 205.55637695 -145.51256836 205.55637695 -144.93359375 204.30078125 C-144.42977173 203.1876355 -144.42977173 203.1876355 -143.91577148 202.05200195 C-142.76943916 199.98484946 -141.47590611 198.7210257 -139.8125 197.0625 C-138.68286923 195.1080076 -138.68286923 195.1080076 -137.7265625 192.9296875 C-137.35273438 192.12273437 -136.97890625 191.31578125 -136.59375 190.484375 C-136.2121875 189.64390625 -135.830625 188.8034375 -135.4375 187.9375 C-132.01818584 180.46217179 -128.55037445 173.03683388 -123.875 166.25 C-121.34738166 162.34368075 -119.38384784 158.2548781 -117.375 154.0625 C-115.8125 151.0625 -115.8125 151.0625 -113.875 148.1875 C-111.51258285 144.60808008 -109.66892973 140.92039303 -107.8125 137.0625 C-105.43508763 132.12193991 -102.85998969 127.63373454 -99.8125 123.0625 C-98.40370275 120.43201138 -97.10626153 117.75109817 -95.8125 115.0625 C-93.98533256 111.26541766 -92.19406816 107.62770255 -89.83203125 104.12890625 C-87.28296473 100.25846675 -85.42530642 96.20652706 -83.5 92 C-74.87034295 73.47524084 -74.87034295 73.47524084 -69.890625 66.2890625 C-67.3037262 62.27256174 -65.36031442 58.08751769 -63.375 53.75 C-59.92697942 46.24619255 -56.37198436 38.86294648 -51.75 32 C-49.68241174 29.05188707 -49.68241174 29.05188707 -48.25 25.4375 C-43.63937914 15.98120702 -31.51661314 2.9030711 -21.9453125 -1.15234375 C-14.8386025 -2.93345187 -6.66673028 -3.40378834 0 0 Z " fill="#7167FE" transform="translate(232.8125,41.9375)"/>
<path d="M0 0 C0.495 0.99 0.495 0.99 1 2 C-0.10902086 4.57268795 -1.27613327 7.01751307 -2.5625 9.5 C-2.92947998 10.22179443 -3.29645996 10.94358887 -3.67456055 11.68725586 C-6.17400065 16.550752 -8.8769065 21.24615049 -11.7578125 25.89453125 C-13.49138724 28.83288592 -14.72280709 31.83742707 -16 35 C-16.98537521 37.0072458 -17.98063057 39.00980253 -19 41 C-19.66 41 -20.32 41 -21 41 C-21.14115234 41.77150391 -21.14115234 41.77150391 -21.28515625 42.55859375 C-22.27109566 45.92587317 -23.84973358 48.9485797 -25.4375 52.0625 C-25.78659424 52.75351807 -26.13568848 53.44453613 -26.49536133 54.15649414 C-30.89405218 62.82373706 -35.40590183 71.43482623 -40 80 C-40.4429541 80.83547363 -40.8859082 81.67094727 -41.34228516 82.53173828 C-41.78233887 83.34755371 -42.22239258 84.16336914 -42.67578125 85.00390625 C-43.07321533 85.74584229 -43.47064941 86.48777832 -43.88012695 87.25219727 C-45 89 -45 89 -47 90 C-48.00804926 92.34423186 -48.92844453 94.67212808 -49.8125 97.0625 C-51.78281235 102.21179349 -53.87032413 106.85620761 -56.98046875 111.4375 C-58.32642193 113.5002635 -59.09777949 115.71437471 -60 118 C-60.60199219 118.8971875 -61.20398438 119.794375 -61.82421875 120.71875 C-69.15148402 131.76884485 -72.97357954 141.70215716 -71 155 C-69.2484122 160.98183759 -66.88865216 166.11922837 -63 171 C-68.39433296 169.07345251 -70.24664191 164.45290488 -72.75 159.625 C-74.20184835 155.49281623 -74.32098908 151.33987715 -74.375 147 C-74.38885742 146.33564941 -74.40271484 145.67129883 -74.41699219 144.98681641 C-74.33816481 136.54606371 -70.48537399 129.65753069 -66.5625 122.375 C-65.98918945 121.28832031 -65.98918945 121.28832031 -65.40429688 120.1796875 C-63.72312062 117.02855239 -62.02179621 114.03180032 -60 111.08203125 C-56.85657278 106.23796079 -54.64223532 100.97739866 -52.26757812 95.72460938 C-51.88923828 94.90412109 -51.51089844 94.08363281 -51.12109375 93.23828125 C-50.61727173 92.1251355 -50.61727173 92.1251355 -50.10327148 90.98950195 C-48.95693916 88.92234946 -47.66340611 87.6585257 -46 86 C-44.87036923 84.0455076 -44.87036923 84.0455076 -43.9140625 81.8671875 C-43.54023437 81.06023437 -43.16640625 80.25328125 -42.78125 79.421875 C-42.3996875 78.58140625 -42.018125 77.7409375 -41.625 76.875 C-38.20568584 69.39967179 -34.73787445 61.97433388 -30.0625 55.1875 C-27.53488166 51.28118075 -25.57134784 47.1923781 -23.5625 43 C-22 40 -22 40 -20.0625 37.125 C-17.70008285 33.54558008 -15.85642973 29.85789303 -14 26 C-11.62393548 21.06224092 -9.06969811 16.555432 -6 12 C-4.88234004 9.89285209 -3.79760926 7.76783713 -2.75 5.625 C-2.22921875 4.56539062 -1.7084375 3.50578125 -1.171875 2.4140625 C-0.78515625 1.61742187 -0.3984375 0.82078125 0 0 Z " fill="#7D7EEB" transform="translate(139,153)"/>
<path d="M0 0 C0.56589844 0.24105469 1.13179687 0.48210938 1.71484375 0.73046875 C0.68359375 1.43171875 -0.34765625 2.13296875 -1.41015625 2.85546875 C-11.41138743 10.39211082 -20.62731698 19.49229485 -26.28515625 30.73046875 C-27.05256691 32.08657799 -27.82346687 33.44071796 -28.59765625 34.79296875 C-33.74086837 44.15029661 -38.76683828 53.58296057 -43.47265625 63.16796875 C-45.70464224 67.68743209 -48.18805786 71.97073891 -50.828125 76.26171875 C-53.21211589 80.30108133 -55.25355135 84.5054497 -57.28515625 88.73046875 C-58.28515625 85.73046875 -58.28515625 85.73046875 -57.63598633 83.92456055 C-57.10074341 82.93709839 -57.10074341 82.93709839 -56.5546875 81.9296875 C-56.16345703 81.19943359 -55.77222656 80.46917969 -55.36914062 79.71679688 C-54.94955078 78.95818359 -54.52996094 78.19957031 -54.09765625 77.41796875 C-53.69740234 76.67095703 -53.29714844 75.92394531 -52.88476562 75.15429688 C-51.13017396 71.91526948 -49.34202482 68.8136857 -47.26171875 65.76953125 C-44.69822232 61.82802883 -42.80153187 57.68679891 -40.84765625 53.41796875 C-37.39963567 45.9141613 -33.84464061 38.53091523 -29.22265625 31.66796875 C-27.15506799 28.71985582 -27.15506799 28.71985582 -25.72265625 25.10546875 C-22.44842101 18.39007647 -7.60905786 -0.89747862 0 0 Z " fill="#9FA0FA" transform="translate(210.28515625,42.26953125)"/>
<path d="M0 0 C0.495 0.99 0.495 0.99 1 2 C-0.10902086 4.57268795 -1.27613327 7.01751307 -2.5625 9.5 C-2.92947998 10.22179443 -3.29645996 10.94358887 -3.67456055 11.68725586 C-6.17400065 16.550752 -8.8769065 21.24615049 -11.7578125 25.89453125 C-13.49138724 28.83288592 -14.72280709 31.83742707 -16 35 C-16.98537521 37.0072458 -17.98063057 39.00980253 -19 41 C-19.66 41 -20.32 41 -21 41 C-21.13051758 41.58700684 -21.26103516 42.17401367 -21.39550781 42.77880859 C-22.34875038 46.28147454 -24.10228402 49.40774435 -25.75 52.625 C-26.10835937 53.33269531 -26.46671875 54.04039062 -26.8359375 54.76953125 C-27.55384954 56.18727841 -28.27322611 57.60428503 -28.99414062 59.02050781 C-30.34242323 61.67387563 -31.67202634 64.33642064 -33 67 C-33.66666667 68.33333333 -34.33333333 69.66666667 -35 71 C-35.66 70.67 -36.32 70.34 -37 70 C-35.80383468 64.56288492 -33.24722483 59.82926309 -30.125 55.25 C-27.55959045 51.32643245 -25.58625013 47.22347853 -23.5625 43 C-22 40 -22 40 -20.0625 37.125 C-17.70008285 33.54558008 -15.85642973 29.85789303 -14 26 C-11.62393548 21.06224092 -9.06969811 16.555432 -6 12 C-4.88234004 9.89285209 -3.79760926 7.76783713 -2.75 5.625 C-2.22921875 4.56539062 -1.7084375 3.50578125 -1.171875 2.4140625 C-0.78515625 1.61742187 -0.3984375 0.82078125 0 0 Z " fill="#8B8CF1" transform="translate(139,153)"/>
<path d="M0 0 C0.66 0 1.32 0 2 0 C0.66269954 4.27424263 -0.95512247 8.23480276 -2.9375 12.25 C-3.44152344 13.28640625 -3.94554688 14.3228125 -4.46484375 15.390625 C-6 18 -6 18 -9 20 C-10.33436501 23.04789385 -11.47152273 26.10268196 -12.57421875 29.23828125 C-14.34670343 34.00598068 -16.55873625 37.24377313 -20 41 C-20 36.32264492 -17.68376775 32.66585487 -15.6875 28.5 C-15.28337891 27.63246094 -14.87925781 26.76492187 -14.46289062 25.87109375 C-14.06650391 25.03707031 -13.67011719 24.20304687 -13.26171875 23.34375 C-12.90037842 22.58255859 -12.53903809 21.82136719 -12.16674805 21.03710938 C-10.98287703 18.97010378 -9.68520764 17.66167895 -8 16 C-6.890981 14.18963563 -6.890981 14.18963563 -5.95703125 12.20703125 C-5.60576172 11.49482422 -5.25449219 10.78261719 -4.89257812 10.04882812 C-4.53615234 9.31083984 -4.17972656 8.57285156 -3.8125 7.8125 C-3.26045898 6.68811523 -3.26045898 6.68811523 -2.69726562 5.54101562 C-1.79271782 3.69667788 -0.89562424 1.84868755 0 0 Z " fill="#8686EE" transform="translate(101,223)"/>
<path d="M0 0 C4.68163265 3.66938776 4.68163265 3.66938776 6.625 5.6875 C9.23735368 8.18111033 12.14631449 8.13979233 15.56323242 8.20532227 C16.94432442 8.2352401 16.94432442 8.2352401 18.35331726 8.26576233 C19.34402725 8.28247482 20.33473724 8.29918732 21.35546875 8.31640625 C22.88062859 8.3475779 22.88062859 8.3475779 24.43659973 8.37937927 C27.68683063 8.44480048 30.93714277 8.50372537 34.1875 8.5625 C36.38998238 8.60569227 38.59245653 8.64930679 40.79492188 8.69335938 C46.19652853 8.80047427 51.59821612 8.90225457 57 9 C57 9.33 57 9.66 57 10 C50.00779391 10.17792768 43.01617425 10.30025694 36.0222168 10.38452148 C33.64471624 10.41965856 31.26736623 10.46737953 28.89038086 10.52807617 C25.466907 10.61328709 22.04543693 10.65275737 18.62109375 10.68359375 C17.0347538 10.73778725 17.0347538 10.73778725 15.41636658 10.79307556 C10.01084434 10.7959321 6.78391858 10.46120649 2.77368164 6.64477539 C0.49414803 4.09793133 0 3.51425749 0 0 Z " fill="#7570FB" transform="translate(71,316)"/>
<path d="M0 0 C2.15616644 2.52791927 3.93005418 4.85894582 5.41015625 7.84375 C9.90952391 16.77615558 16.26999408 23.75515725 24 30 C22.31640625 30.7890625 22.31640625 30.7890625 20 31 C17.52734375 29.0859375 17.52734375 29.0859375 14.9375 26.375 C14.08027344 25.49585938 13.22304688 24.61671875 12.33984375 23.7109375 C10.17919708 21.20761732 8.5915706 18.88581482 7 16 C6.39800781 14.93523437 5.79601562 13.87046875 5.17578125 12.7734375 C4.56089844 11.65195312 3.94601562 10.53046875 3.3125 9.375 C2.68988281 8.24835938 2.06726563 7.12171875 1.42578125 5.9609375 C0 3 0 3 0 0 Z " fill="#6D55F3" transform="translate(318,295)"/>
<path d="M0 0 C0.556875 0.2475 1.11375 0.495 1.6875 0.75 C0.615 1.4925 -0.4575 2.235 -1.5625 3 C-7.73852453 7.59869452 -12.96303688 13.24005299 -18.3125 18.75 C-18.6425 17.76 -18.9725 16.77 -19.3125 15.75 C-17.41980953 13.83014172 -15.52350983 11.91408963 -13.625 10 C-12.82932617 9.19175781 -12.82932617 9.19175781 -12.01757812 8.3671875 C-3.34228516 -0.36132812 -3.34228516 -0.36132812 0 0 Z " fill="#9093FA" transform="translate(210.3125,42.25)"/>
<path d="M0 0 C0.33 0.66 0.66 1.32 1 2 C-0.1090253 4.57269827 -1.27589519 7.01761953 -2.5625 9.5 C-3.11296997 10.58051636 -3.11296997 10.58051636 -3.67456055 11.68286133 C-6.55046431 17.27013487 -9.663326 22.67510138 -13 28 C-14.00276143 29.66500669 -15.00344032 31.33127397 -16 33 C-16 25.56134784 -10.0065895 18.00988426 -6 12 C-3.92985148 8.03392339 -1.95366573 4.0245514 0 0 Z " fill="#9697F4" transform="translate(139,153)"/>
<path d="M0 0 C9.70201571 1.21275196 15.60566285 7.07280142 22 14 C21.67 14.99 21.34 15.98 21 17 C19.99403703 16.0479279 18.99538437 15.08812654 18 14.125 C17.443125 13.59132813 16.88625 13.05765625 16.3125 12.5078125 C15 11 15 11 15 9 C14.34 9 13.68 9 13 9 C13 8.34 13 7.68 13 7 C12.34 6.7525 11.68 6.505 11 6.25 C7.23639093 4.68182955 3.6288576 2.85494954 0 1 C0 0.67 0 0.34 0 0 Z " fill="#A3A4FD" transform="translate(224,40)"/>
<path d="M0 0 C0.33 0.66 0.66 1.32 1 2 C-0.14821567 4.69993866 -1.35608621 7.26755185 -2.6875 9.875 C-3.04005859 10.59558594 -3.39261719 11.31617188 -3.75585938 12.05859375 C-5.7350439 15.98801678 -7.61467752 19.08082802 -11 22 C-10.49895965 18.74323774 -9.12207034 16.65311495 -7.25390625 13.9921875 C-4.45629829 9.54738981 -2.29122077 4.71991478 0 0 Z " fill="#9B9BF6" transform="translate(151,131)"/>
<path d="M0 0 C2.72544692 3.11479648 3.88671534 6.26073769 5.23828125 10.09375 C6.15181351 12.37992304 7.38250288 14.15143186 9 16 C4.74814503 14.48148037 3.09571311 11.90236234 1 8 C0.41203384 5.29827122 0.19118252 2.77214651 0 0 Z " fill="#8583EA" transform="translate(67,308)"/>
<path d="M0 0 C4.68163265 3.66938776 4.68163265 3.66938776 6.625 5.6875 C8.08068897 7.26372838 8.08068897 7.26372838 11 8 C11 8.66 11 9.32 11 10 C6.36108575 9.72712269 4.2649533 7.70642674 1.13671875 4.5703125 C0 3 0 3 0 0 Z " fill="#7976F1" transform="translate(71,316)"/>
<path d="M0 0 C2.38672669 2.96283313 4.7353371 5.94270509 7 9 C6.67 9.66 6.34 10.32 6 11 C3.34730103 8.52414762 1.31989897 6.40973899 0 3 C0 2.01 0 1.02 0 0 Z " fill="#7460F6" transform="translate(304,271)"/>
<path d="M0 0 C0.59296875 0.21527344 1.1859375 0.43054687 1.796875 0.65234375 C0.51163239 1.51614634 -0.78154919 2.36814744 -2.078125 3.21484375 C-2.79742187 3.69050781 -3.51671875 4.16617188 -4.2578125 4.65625 C-4.89976562 4.98496094 -5.54171875 5.31367187 -6.203125 5.65234375 C-6.863125 5.32234375 -7.523125 4.99234375 -8.203125 4.65234375 C-2.74543269 -0.43323317 -2.74543269 -0.43323317 0 0 Z " fill="#A1A3FC" transform="translate(210.203125,42.34765625)"/>
</svg>
